<svg width="81" height="80" viewBox="0 0 81 80" fill="none" xmlns="http://www.w3.org/2000/svg">
<path d="M11.9677 54.0627L19.5302 11.219C19.583 10.8956 19.6997 10.586 19.8734 10.3082C20.0471 10.0304 20.2744 9.78997 20.542 9.60091C20.8096 9.41184 21.1122 9.27794 21.432 9.207C21.7519 9.13606 22.0827 9.1295 22.4052 9.18771L39.6552 12.219C40.3069 12.3408 40.8848 12.7135 41.2647 13.257C41.6445 13.8005 41.7959 14.4713 41.6864 15.1252L34.0926 58.219C33.5726 61.1207 31.9374 63.7036 29.537 65.4148C27.1365 67.1261 24.1616 67.8297 21.2489 67.3752C15.0302 66.3752 10.8739 60.2815 11.9677 54.0627Z" stroke="white" stroke-width="3" stroke-linecap="round" stroke-linejoin="round"/>
<path d="M37.4688 39.0005L60.25 30.7192C60.5597 30.6049 60.889 30.553 61.2189 30.5666C61.5488 30.5802 61.8727 30.659 62.172 30.7984C62.4712 30.9379 62.7399 31.1353 62.9625 31.3791C63.1851 31.623 63.3571 31.9085 63.4687 32.2192L69.4687 48.6567C69.69 49.2784 69.6565 49.9624 69.3756 50.5596C69.0946 51.1567 68.5889 51.6185 67.9687 51.8442L26.8438 66.813" stroke="white" stroke-width="3" stroke-linecap="round" stroke-linejoin="round"/>
<path d="M69.25 50.7812V65C69.25 65.663 68.9866 66.2989 68.5178 66.7678C68.0489 67.2366 67.413 67.5 66.75 67.5H23" stroke="white" stroke-width="3" stroke-linecap="round" stroke-linejoin="round"/>
<path d="M23 60C25.0711 60 26.75 58.3211 26.75 56.25C26.75 54.1789 25.0711 52.5 23 52.5C20.9289 52.5 19.25 54.1789 19.25 56.25C19.25 58.3211 20.9289 60 23 60Z" fill="white"/>
</svg>
