<svg width="170" height="170" viewBox="0 0 170 170" fill="none" xmlns="http://www.w3.org/2000/svg">
<path d="M85.0006 126.667C108.013 126.667 126.667 108.013 126.667 85.0006C126.667 61.9888 108.013 43.334 85.0006 43.334C61.9888 43.334 43.334 61.9888 43.334 85.0006C43.334 108.013 61.9888 126.667 85.0006 126.667Z" fill="url(#paint0_linear_34736_3941)"/>
<g filter="url(#filter0_f_34736_3941)">
<path d="M84.9992 115.434C101.808 115.434 115.434 101.808 115.434 84.9992C115.434 68.1906 101.808 54.5645 84.9992 54.5645C68.1906 54.5645 54.5645 68.1906 54.5645 84.9992C54.5645 101.808 68.1906 115.434 84.9992 115.434Z" fill="url(#paint1_linear_34736_3941)"/>
</g>
<path fill-rule="evenodd" clip-rule="evenodd" d="M65.1073 53.6878C65.8044 53.6878 66.3695 53.1227 66.3695 52.4256C66.3695 51.7286 65.8044 51.1635 65.1073 51.1635C64.4102 51.1635 63.8451 51.7286 63.8451 52.4256C63.8451 53.1227 64.4102 53.6878 65.1073 53.6878ZM65.1073 54.6345C66.3272 54.6345 67.3162 53.6456 67.3162 52.4256C67.3162 51.2057 66.3272 50.2168 65.1073 50.2168C63.8874 50.2168 62.8984 51.2057 62.8984 52.4256C62.8984 53.6456 63.8874 54.6345 65.1073 54.6345Z" fill="white"/>
<path fill-rule="evenodd" clip-rule="evenodd" d="M53.5135 106.95C54.2106 106.95 54.7757 106.384 54.7757 105.687C54.7757 104.99 54.2106 104.425 53.5135 104.425C52.8165 104.425 52.2514 104.99 52.2514 105.687C52.2514 106.384 52.8165 106.95 53.5135 106.95ZM53.5135 107.896C54.7335 107.896 55.7224 106.907 55.7224 105.687C55.7224 104.467 54.7335 103.479 53.5135 103.479C52.2936 103.479 51.3047 104.467 51.3047 105.687C51.3047 106.907 52.2936 107.896 53.5135 107.896Z" fill="white"/>
<path fill-rule="evenodd" clip-rule="evenodd" d="M116.92 71.4417C117.617 71.4417 118.182 70.8766 118.182 70.1795C118.182 69.4825 117.617 68.9174 116.92 68.9174C116.223 68.9174 115.658 69.4825 115.658 70.1795C115.658 70.8766 116.223 71.4417 116.92 71.4417ZM116.92 72.3885C118.14 72.3885 119.129 71.3993 119.129 70.1795C119.129 68.9597 118.14 67.9707 116.92 67.9707C115.7 67.9707 114.711 68.9597 114.711 70.1795C114.711 71.3993 115.7 72.3885 116.92 72.3885Z" fill="white"/>
<path d="M50.7221 53.9095C50.8149 53.5249 51.362 53.5249 51.4548 53.9095L51.7673 55.204C51.8005 55.3414 51.9078 55.4487 52.0452 55.4819L53.3396 55.7944C53.7242 55.8872 53.7242 56.4343 53.3396 56.5271L52.0452 56.8395C51.9078 56.8727 51.8005 56.98 51.7673 57.1175L51.4548 58.4119C51.362 58.7965 50.8149 58.7965 50.7221 58.4119L50.4096 57.1175C50.3764 56.98 50.2692 56.8727 50.1317 56.8395L48.8373 56.5271C48.4527 56.4343 48.4527 55.8872 48.8373 55.7944L50.1317 55.4819C50.2692 55.4487 50.3764 55.3414 50.4096 55.204L50.7221 53.9095Z" fill="white"/>
<path d="M118.078 53.6931C118.179 53.2716 118.779 53.2716 118.881 53.6931L119.223 55.112C119.26 55.2626 119.377 55.3803 119.528 55.4166L120.946 55.7591C121.368 55.8609 121.368 56.4605 120.946 56.5623L119.528 56.9048C119.377 56.9412 119.26 57.0588 119.223 57.2094L118.881 58.6283C118.779 59.0499 118.179 59.0499 118.078 58.6283L117.735 57.2094C117.699 57.0588 117.581 56.9412 117.43 56.9048L116.011 56.5623C115.59 56.4605 115.59 55.8609 116.011 55.7591L117.43 55.4166C117.581 55.3803 117.699 55.2626 117.735 55.112L118.078 53.6931Z" fill="url(#paint2_linear_34736_3941)"/>
<path d="M54.938 115.159C55.4177 115.082 55.8007 115.553 55.6273 116.007L54.4574 119.07C54.2841 119.524 53.6844 119.62 53.378 119.243L51.31 116.698C51.0035 116.321 51.2202 115.754 51.6999 115.677L54.938 115.159Z" fill="url(#paint3_linear_34736_3941)"/>
<path d="M112.528 106.741C112.408 106.27 112.842 105.846 113.31 105.977L116.467 106.865C116.935 106.996 117.085 107.585 116.737 107.924L114.391 110.214C114.043 110.554 113.458 110.389 113.338 109.919L112.528 106.741Z" fill="url(#paint4_linear_34736_3941)"/>
<path d="M101.127 90.7474L72.9942 80.5075C70.8377 79.7227 68.4532 80.8347 67.6683 82.9912L61.0271 101.238C60.2422 103.394 61.3541 105.779 63.5106 106.563L91.6439 116.803C93.8004 117.588 96.1848 116.476 96.9696 114.319L103.611 96.0731C104.396 93.9166 103.284 91.5322 101.127 90.7474Z" fill="url(#paint5_linear_34736_3941)"/>
<path d="M99.9848 96.3983L108.295 84.4277C109.604 82.5425 109.137 79.9534 107.252 78.6447L95.2811 70.3341C93.396 69.0254 90.8069 69.4926 89.4982 71.3777L81.1877 83.3483C79.879 85.2335 80.346 87.8226 82.2311 89.1313L94.2018 97.4418C96.0869 98.7505 98.6761 98.2831 99.9848 96.3983Z" fill="url(#paint6_linear_34736_3941)"/>
<path d="M90.5236 86.872C90.0153 87.5727 89.0385 87.7278 88.3377 87.2191C87.637 86.7108 87.4823 85.7339 87.9907 85.0332C88.4993 84.3325 89.4762 84.1774 90.1769 84.6861C90.8772 85.1948 91.0323 86.1716 90.5236 86.872Z" fill="url(#paint7_linear_34736_3941)"/>
<path d="M95.1473 80.4905L94.1803 79.7891L89.5625 86.1568L90.5295 86.8583L95.1473 80.4905Z" fill="url(#paint8_linear_34736_3941)"/>
<path d="M95.9574 88.0028C95.4487 88.7036 94.4719 88.8586 93.7715 88.3499C93.0708 87.8416 92.9157 86.8648 93.4244 86.1641C93.9327 85.4634 94.9095 85.3083 95.6103 85.817C96.311 86.3257 96.4661 87.3025 95.9574 88.0028Z" fill="url(#paint9_linear_34736_3941)"/>
<path d="M100.592 81.6171L99.6248 80.916L95.0078 87.2845L95.9752 87.9856L100.592 81.6171Z" fill="url(#paint10_linear_34736_3941)"/>
<path d="M100.579 81.6343L93.5664 80.6416L94.1823 79.7891L101.194 80.7851L100.579 81.6343Z" fill="url(#paint11_linear_34736_3941)"/>
<path d="M99.415 83.2379L92.4023 82.2451L93.0183 81.3926L100.033 82.3897L99.415 83.2379Z" fill="url(#paint12_linear_34736_3941)"/>
<path d="M93.8311 69.9024L91.3975 58.6271C90.9134 56.3839 88.7022 54.9579 86.459 55.4421L71.7148 58.6245C69.4717 59.1086 68.0458 61.3196 68.53 63.5629L70.9637 74.8382C71.4478 77.0813 73.6587 78.5074 75.9022 78.0233L90.646 74.8407C92.8895 74.3567 94.3152 72.1458 93.8311 69.9024Z" fill="url(#paint13_linear_34736_3941)"/>
<path d="M93.6382 68.7434L85.3734 62.1074L82.1781 68.4068L78.8121 66.4663L74.1585 72.9442L70.668 73.6964L70.8342 74.4776C71.3951 77.0707 73.9505 78.7203 76.5437 78.1591L90.1187 75.2297C92.7118 74.6689 94.3614 72.1134 93.8002 69.5204L93.6342 68.7434H93.6382Z" fill="url(#paint14_linear_34736_3941)"/>
<path opacity="0.9" d="M74.0753 65.7144C75.3677 65.6812 76.2028 64.3847 75.6999 63.1963C75.4173 62.5315 74.7402 62.0952 74.017 62.1118C72.7249 62.145 71.8894 63.4415 72.3923 64.6299C72.6749 65.2947 73.3521 65.731 74.0753 65.7144Z" fill="white"/>
<path d="M96.5331 113.652C95.9581 116.07 93.4042 117.446 91.0694 116.596L62.9886 106.375C61.0062 105.654 59.8791 103.561 60.3674 101.509L64.355 84.7463C64.9301 82.3289 67.4838 80.9532 69.8187 81.8032L97.8995 92.0238C99.8817 92.7452 101.009 94.8376 100.521 96.8901L96.5331 113.652Z" fill="url(#paint15_linear_34736_3941)"/>
<defs>
<filter id="filter0_f_34736_3941" x="0.564453" y="0.564453" width="168.869" height="168.869" filterUnits="userSpaceOnUse" color-interpolation-filters="sRGB">
<feFlood flood-opacity="0" result="BackgroundImageFix"/>
<feBlend mode="normal" in="SourceGraphic" in2="BackgroundImageFix" result="shape"/>
<feGaussianBlur stdDeviation="27" result="effect1_foregroundBlur_34736_3941"/>
</filter>
<linearGradient id="paint0_linear_34736_3941" x1="54.9584" y1="43.334" x2="118.56" y2="56.5735" gradientUnits="userSpaceOnUse">
<stop stop-color="#A259FF"/>
<stop offset="1" stop-color="#3B3B3B"/>
</linearGradient>
<linearGradient id="paint1_linear_34736_3941" x1="120.144" y1="90.0717" x2="97.4971" y2="129.109" gradientUnits="userSpaceOnUse">
<stop stop-color="#A259FF" stop-opacity="0"/>
<stop offset="1" stop-color="#FF6250"/>
</linearGradient>
<linearGradient id="paint2_linear_34736_3941" x1="119.669" y1="54.6142" x2="125.006" y2="58.8061" gradientUnits="userSpaceOnUse">
<stop stop-color="#A259FF"/>
<stop offset="1" stop-color="#377DF7"/>
</linearGradient>
<linearGradient id="paint3_linear_34736_3941" x1="55.4327" y1="116.712" x2="55.2544" y2="122.022" gradientUnits="userSpaceOnUse">
<stop stop-color="#A259FF"/>
<stop offset="1" stop-color="#377DF7"/>
</linearGradient>
<linearGradient id="paint4_linear_34736_3941" x1="114.031" y1="106.107" x2="119.335" y2="105.803" gradientUnits="userSpaceOnUse">
<stop stop-color="#A259FF"/>
<stop offset="1" stop-color="#377DF7"/>
</linearGradient>
<linearGradient id="paint5_linear_34736_3941" x1="92.6377" y1="94.2144" x2="108.158" y2="131.307" gradientUnits="userSpaceOnUse">
<stop stop-color="#A259FF"/>
<stop offset="0.416667" stop-color="#A259FF" stop-opacity="0"/>
</linearGradient>
<linearGradient id="paint6_linear_34736_3941" x1="97.1728" y1="91.5317" x2="70.5111" y2="99.7248" gradientUnits="userSpaceOnUse">
<stop stop-color="#FF7262"/>
<stop offset="0.317708" stop-color="#A259FF"/>
</linearGradient>
<linearGradient id="paint7_linear_34736_3941" x1="92.9816" y1="79.6205" x2="95.9367" y2="85.8448" gradientUnits="userSpaceOnUse">
<stop stop-color="#3B3B3B"/>
<stop offset="1" stop-color="#A259FF"/>
</linearGradient>
<linearGradient id="paint8_linear_34736_3941" x1="103.42" y1="68.9329" x2="106.025" y2="71.4905" gradientUnits="userSpaceOnUse">
<stop stop-color="#3B3B3B"/>
<stop offset="1" stop-color="#A259FF"/>
</linearGradient>
<linearGradient id="paint9_linear_34736_3941" x1="98.4153" y1="80.7518" x2="101.37" y2="86.9757" gradientUnits="userSpaceOnUse">
<stop stop-color="#3B3B3B"/>
<stop offset="1" stop-color="#A259FF"/>
</linearGradient>
<linearGradient id="paint10_linear_34736_3941" x1="108.863" y1="70.058" x2="111.468" y2="72.6153" gradientUnits="userSpaceOnUse">
<stop stop-color="#3B3B3B"/>
<stop offset="1" stop-color="#A259FF"/>
</linearGradient>
<linearGradient id="paint11_linear_34736_3941" x1="102.221" y1="76.4017" x2="102.115" y2="83.7235" gradientUnits="userSpaceOnUse">
<stop stop-color="#3B3B3B"/>
<stop offset="1" stop-color="#A259FF"/>
</linearGradient>
<linearGradient id="paint12_linear_34736_3941" x1="101.06" y1="78.0064" x2="100.953" y2="85.3281" gradientUnits="userSpaceOnUse">
<stop stop-color="#3B3B3B"/>
<stop offset="1" stop-color="#A259FF"/>
</linearGradient>
<linearGradient id="paint13_linear_34736_3941" x1="84.4822" y1="58.5129" x2="89.1873" y2="73.8914" gradientUnits="userSpaceOnUse">
<stop stop-color="#FF7262"/>
<stop offset="1" stop-color="#A259FF"/>
</linearGradient>
<linearGradient id="paint14_linear_34736_3941" x1="81.1571" y1="84.2758" x2="76.0462" y2="65.3973" gradientUnits="userSpaceOnUse">
<stop stop-color="#A259FF"/>
<stop offset="1" stop-color="white"/>
</linearGradient>
<linearGradient id="paint15_linear_34736_3941" x1="89.8056" y1="108.481" x2="70.2615" y2="58.7547" gradientUnits="userSpaceOnUse">
<stop stop-color="#A259FF"/>
<stop offset="0.666667" stop-color="white"/>
</linearGradient>
</defs>
</svg>
