<svg width="170" height="169" viewBox="0 0 170 169" fill="none" xmlns="http://www.w3.org/2000/svg">
<path d="M85.0006 126.167C108.013 126.167 126.667 107.513 126.667 84.5006C126.667 61.4888 108.013 42.834 85.0006 42.834C61.9888 42.834 43.334 61.4888 43.334 84.5006C43.334 107.513 61.9888 126.167 85.0006 126.167Z" fill="url(#paint0_linear_34736_3893)"/>
<g filter="url(#filter0_f_34736_3893)">
<path d="M84.9992 114.934C101.808 114.934 115.434 101.308 115.434 84.4992C115.434 67.6906 101.808 54.0645 84.9992 54.0645C68.1906 54.0645 54.5645 67.6906 54.5645 84.4992C54.5645 101.308 68.1906 114.934 84.9992 114.934Z" fill="url(#paint1_linear_34736_3893)"/>
</g>
<path fill-rule="evenodd" clip-rule="evenodd" d="M82.1364 50.6527C82.8335 50.6527 83.3987 50.0876 83.3987 49.3905C83.3987 48.6934 82.8335 48.1283 82.1364 48.1283C81.4393 48.1283 80.8745 48.6934 80.8745 49.3905C80.8745 50.0876 81.4393 50.6527 82.1364 50.6527ZM82.1364 51.5994C83.3564 51.5994 84.3455 50.6104 84.3455 49.3905C84.3455 48.1706 83.3564 47.1816 82.1364 47.1816C80.9165 47.1816 79.9277 48.1706 79.9277 49.3905C79.9277 50.6104 80.9165 51.5994 82.1364 51.5994Z" fill="white"/>
<path fill-rule="evenodd" clip-rule="evenodd" d="M52.0643 108.623C52.7614 108.623 53.3265 108.058 53.3265 107.361C53.3265 106.664 52.7614 106.099 52.0643 106.099C51.3672 106.099 50.8021 106.664 50.8021 107.361C50.8021 108.058 51.3672 108.623 52.0643 108.623ZM52.0643 109.57C53.2842 109.57 54.2732 108.581 54.2732 107.361C54.2732 106.141 53.2842 105.152 52.0643 105.152C50.8444 105.152 49.8555 106.141 49.8555 107.361C49.8555 108.581 50.8444 109.57 52.0643 109.57Z" fill="white"/>
<path fill-rule="evenodd" clip-rule="evenodd" d="M121.267 105.725C121.964 105.725 122.53 105.16 122.53 104.463C122.53 103.765 121.964 103.201 121.267 103.201C120.57 103.201 120.005 103.765 120.005 104.463C120.005 105.16 120.57 105.725 121.267 105.725ZM121.267 106.672C122.487 106.672 123.476 105.683 123.476 104.463C123.476 103.243 122.487 102.254 121.267 102.254C120.047 102.254 119.059 103.243 119.059 104.463C119.059 105.683 120.047 106.672 121.267 106.672Z" fill="white"/>
<path d="M61.5912 56.308C61.6841 55.9234 62.2311 55.9234 62.324 56.308L62.6364 57.6024C62.6696 57.7398 62.7769 57.8471 62.9144 57.8803L64.2088 58.1928C64.5934 58.2856 64.5934 58.8327 64.2088 58.9255L62.9144 59.238C62.7769 59.2712 62.6696 59.3785 62.6364 59.5159L62.324 60.8103C62.2311 61.1949 61.6841 61.1949 61.5912 60.8103L61.2788 59.5159C61.2456 59.3785 61.1383 59.2712 61.0008 59.238L59.7064 58.9255C59.3218 58.8327 59.3218 58.2856 59.7064 58.1928L61.0008 57.8803C61.1383 57.8471 61.2456 57.7398 61.2788 57.6024L61.5912 56.308Z" fill="white"/>
<path d="M115.179 112.974C115.281 112.553 115.881 112.553 115.982 112.974L116.325 114.393C116.361 114.544 116.479 114.662 116.629 114.698L118.048 115.041C118.47 115.142 118.47 115.742 118.048 115.843L116.629 116.186C116.479 116.222 116.361 116.34 116.325 116.491L115.982 117.909C115.881 118.331 115.281 118.331 115.179 117.909L114.836 116.491C114.8 116.34 114.682 116.222 114.532 116.186L113.113 115.843C112.691 115.742 112.691 115.142 113.113 115.041L114.532 114.698C114.682 114.662 114.8 114.544 114.836 114.393L115.179 112.974Z" fill="url(#paint2_linear_34736_3893)"/>
<path d="M55.6626 118.282C56.1423 118.205 56.5253 118.676 56.3519 119.13L55.182 122.193C55.0087 122.647 54.409 122.743 54.1027 122.366L52.0346 119.821C51.7282 119.444 51.9448 118.877 52.4245 118.8L55.6626 118.282Z" fill="url(#paint3_linear_34736_3893)"/>
<path d="M117.239 59.5026C117.119 59.0318 117.553 58.6076 118.021 58.7391L121.178 59.6263C121.646 59.7577 121.796 60.3461 121.448 60.6855L119.102 62.9759C118.754 63.3152 118.169 63.151 118.049 62.6802L117.239 59.5026Z" fill="url(#paint4_linear_34736_3893)"/>
<path d="M106.728 81.4964L99.8823 82.8272C97.9344 83.2054 96.6627 85.0913 97.0413 87.0388C97.4199 88.9862 99.3054 90.258 101.253 89.8797L108.099 88.5489C110.046 88.1703 111.318 86.2848 110.939 84.3373C110.561 82.3899 108.675 81.1177 106.728 81.4964Z" fill="url(#paint5_linear_34736_3893)"/>
<path d="M109.417 85.0089C109.452 84.1223 108.761 83.3755 107.874 83.3411C106.987 83.3063 106.241 83.9973 106.206 84.8839C106.172 85.7705 106.862 86.5172 107.749 86.552C108.636 86.5864 109.383 85.8955 109.417 85.0089Z" fill="#EBEBEB"/>
<path d="M107.979 85.8091C108.456 85.7163 108.767 85.2547 108.674 84.7783C108.582 84.3015 108.12 83.9903 107.643 84.0826C107.167 84.1754 106.855 84.637 106.948 85.1138C107.041 85.5903 107.502 85.9018 107.979 85.8091Z" fill="#DBDBDB"/>
<path d="M95.8735 70.6766L60.9208 77.4709C58.9565 77.8524 57.6737 79.7546 58.0555 81.7187L62.778 106.014C63.1598 107.978 65.0617 109.261 67.026 108.879L101.979 102.085C103.943 101.703 105.226 99.8013 104.844 97.8368L100.121 73.5419C99.7398 71.5777 97.838 70.2948 95.8735 70.6766Z" fill="url(#paint6_linear_34736_3893)"/>
<path d="M95.2338 59.6308L102.374 78.0857C102.773 79.1173 102.26 80.2774 101.23 80.6763L71.9606 91.9999C70.9308 92.3991 69.7707 91.8854 69.3709 90.8538L62.2312 72.3988C61.8606 71.4386 62.3367 70.3598 63.2971 69.9892L92.8233 58.5671C93.7838 58.1966 94.8625 58.6727 95.2331 59.6331L95.2338 59.6308Z" fill="url(#paint7_linear_34736_3893)"/>
<path d="M96.6105 77.3242C96.9765 78.2731 96.5058 79.3401 95.5569 79.706C94.6084 80.0723 93.541 79.6013 93.175 78.6524C92.8087 77.7039 93.2797 76.6368 94.2286 76.2705C95.1772 75.9046 96.2446 76.3756 96.6105 77.3242Z" fill="url(#paint8_linear_34736_3893)"/>
<path d="M98.7236 76.5056C99.0899 77.4545 98.6189 78.5216 97.6704 78.8879C96.7214 79.2538 95.6544 78.7828 95.2881 77.8343C94.9222 76.8853 95.3932 75.8183 96.3417 75.4524C97.2906 75.0861 98.3577 75.5571 98.7236 76.5056Z" fill="url(#paint9_linear_34736_3893)"/>
<path d="M71.0547 70.6308L66.2593 72.4859C65.8727 72.6355 65.6805 73.0703 65.8301 73.4569L66.945 76.3388C67.0945 76.7254 67.5293 76.9178 67.9159 76.7682L72.7111 74.9127C73.0981 74.7634 73.2901 74.3287 73.1405 73.9421L72.0256 71.0602C71.876 70.6734 71.4412 70.4813 71.0547 70.6308Z" fill="url(#paint10_linear_34736_3893)"/>
<path d="M92.8797 64.8851L90.0757 65.9691C89.4268 66.2183 88.6986 65.8967 88.4475 65.2483C88.1986 64.5993 88.5199 63.8709 89.1685 63.6201L91.9721 62.5362C92.6207 62.2854 93.3497 62.6085 93.6004 63.257C93.8497 63.906 93.5279 64.6343 92.8797 64.8851Z" fill="white"/>
<path d="M68.4967 81.0266L68.3008 81.274C68.3008 81.274 68.2846 81.2918 68.2729 81.2961C68.2496 81.3052 68.2244 81.2994 68.208 81.2867C68.1768 81.2603 68.1727 81.2197 68.1987 81.1925L68.4644 80.8476C68.487 80.8215 68.5326 80.8157 68.5585 80.8382C68.5726 80.8501 68.58 80.8642 68.5847 80.8816L69.2238 82.5316C69.2366 82.565 69.2225 82.603 69.1858 82.6171C69.1524 82.6298 69.1131 82.6124 69.1004 82.5791L68.5001 81.0251L68.4967 81.0266Z" fill="#F8F8F8"/>
<path d="M69.6433 82.3146L70.1888 81.232C70.2531 81.1001 70.2591 80.9563 70.2097 80.8277C70.1675 80.7175 70.0835 80.6237 69.9695 80.5657C69.8409 80.5005 69.6943 80.4972 69.5698 80.5469C69.4563 80.5907 69.3609 80.6712 69.3016 80.786L69.2455 80.8994C69.2301 80.9338 69.1878 80.9483 69.1582 80.9309C69.1235 80.9154 69.1092 80.8733 69.1265 80.8436L69.1819 80.7284C69.2569 80.5849 69.3805 80.478 69.5224 80.4237C69.6792 80.3632 69.8608 80.3625 70.0282 80.4494C70.1768 80.5226 70.2807 80.6436 70.3338 80.782C70.3947 80.9407 70.3928 81.1251 70.3098 81.2929L69.8427 82.2208L70.6937 81.894C70.7264 81.8795 70.765 81.8954 70.7791 81.932C70.7919 81.9654 70.7745 82.0049 70.7411 82.0175L69.7396 82.4056L69.7296 82.4096C69.7112 82.4168 69.6909 82.4186 69.6758 82.4092C69.6416 82.3896 69.6268 82.3512 69.6423 82.3168L69.6433 82.3146Z" fill="#F8F8F8"/>
<path d="M71.6381 79.7339L71.3584 80.3908C71.4805 80.3709 71.6095 80.3825 71.7297 80.4361C71.8935 80.5089 72.0138 80.6426 72.0739 80.7995C72.1341 80.9564 72.1359 81.1357 72.0613 81.3002C71.9884 81.4643 71.8551 81.5861 71.6989 81.648C71.5457 81.7067 71.3663 81.7085 71.2017 81.6339C71.1678 81.6201 71.1507 81.581 71.1672 81.5441C71.1803 81.5082 71.2203 81.493 71.2573 81.5093C71.3877 81.5647 71.5272 81.5647 71.6508 81.5172C71.7743 81.4698 71.8797 81.3756 71.9392 81.2459C71.9975 81.114 71.9953 80.9734 71.9479 80.8498C71.9004 80.7263 71.8066 80.6209 71.6761 80.5658C71.546 80.5064 71.4055 80.5089 71.2819 80.556C71.262 80.564 71.2395 80.5607 71.2205 80.5509L71.2172 80.5524C71.1809 80.5375 71.1649 80.4959 71.182 80.4604L71.4508 79.8288L70.7616 80.0933C70.7255 80.1093 70.6863 80.0919 70.6729 80.0567C70.6588 80.0201 70.6762 79.9806 70.7113 79.9672L71.5522 79.6444C71.5881 79.6288 71.6276 79.6462 71.641 79.6814C71.645 79.6912 71.6453 79.7027 71.6435 79.7129C71.6435 79.7223 71.641 79.731 71.6377 79.7379L71.6381 79.7339Z" fill="#F8F8F8"/>
<path d="M73.6548 80.4642L72.6819 80.8414L72.6736 80.8446C72.6602 80.8497 72.6439 80.8522 72.6301 80.8461C72.5939 80.837 72.5747 80.7964 72.5885 80.7624L73.1279 79.066L73.1298 79.0613C73.1424 79.024 73.1761 79.0073 73.2135 79.0196C73.2265 79.0243 73.2363 79.0341 73.245 79.0421C73.2468 79.0472 73.2515 79.049 73.2522 79.0508L73.2555 79.0591L73.7319 80.291L73.8522 80.2446C73.8888 80.2309 73.9283 80.2483 73.941 80.2816C73.9537 80.3149 73.9363 80.3541 73.9011 80.3675L73.7812 80.4138L73.8997 80.7225C73.9124 80.7559 73.895 80.795 73.8598 80.8084C73.8265 80.8214 73.7874 80.8037 73.7743 80.7704L73.6558 80.4617L73.6548 80.4642ZM73.6077 80.3406L73.2 79.2892L72.758 80.6707L73.6087 80.3439L73.6077 80.3406Z" fill="#F8F8F8"/>
<path d="M75.9801 79.7855C75.9438 79.7707 75.9279 79.729 75.9456 79.6953C75.9612 79.6609 76.0022 79.6431 76.0373 79.6602C76.1677 79.7156 76.3076 79.7156 76.4308 79.6681C76.5543 79.6207 76.6565 79.5279 76.7152 79.3964C76.7739 79.2645 76.7721 79.1254 76.7246 79.0022C76.6768 78.8768 76.5826 78.7714 76.4533 78.7138C76.3246 78.658 76.1833 78.6587 76.0598 78.7058C75.9344 78.754 75.8308 78.8475 75.7721 78.979C75.7565 79.0138 75.7148 79.0297 75.6819 79.0138C75.6717 79.012 75.6634 79.0055 75.6594 78.9993L75.658 78.996C75.658 78.996 75.6529 78.9924 75.6514 78.9892C75.6464 78.9852 75.6431 78.9768 75.6406 78.9703C75.6391 78.9671 75.6388 78.9613 75.6369 78.9562L75.4435 78.1979C75.4359 78.1779 75.4395 78.1573 75.4507 78.1417C75.4569 78.1276 75.4699 78.1171 75.4866 78.1105L76.3243 77.7892C76.3601 77.7732 76.3993 77.7906 76.413 77.8258C76.4275 77.8642 76.4094 77.9018 76.3746 77.9152L75.5902 78.2163L75.733 78.7779C75.8036 78.6873 75.8978 78.6189 76.0065 78.5772C76.1634 78.5171 76.338 78.5131 76.5047 78.5888C76.6721 78.6605 76.7877 78.7921 76.8493 78.9522C76.908 79.1058 76.9145 79.2873 76.838 79.4526C76.7645 79.6145 76.6297 79.7373 76.4746 79.7968C76.3177 79.8569 76.1384 79.8587 75.9746 79.7859L75.9801 79.7855Z" fill="#F8F8F8"/>
<path d="M77.2176 77.8956C77.2575 77.6296 77.402 77.3883 77.6962 77.2619C77.7285 77.2459 77.7676 77.2633 77.7839 77.2956C77.7977 77.3321 77.7803 77.3713 77.7477 77.3858C77.4995 77.4927 77.3912 77.6836 77.3491 77.914C77.3278 78.0427 77.3365 78.185 77.3607 78.3231C77.422 78.1579 77.5495 78.0169 77.7267 77.9492C78.0586 77.8216 78.4256 77.985 78.5513 78.3122C78.6774 78.6408 78.5155 79.0071 78.1857 79.1358C77.864 79.2593 77.5046 79.1064 77.3705 78.7923C77.351 78.7557 77.3361 78.7173 77.3202 78.6756C77.2303 78.4365 77.1781 78.1557 77.2194 77.8948L77.2176 77.8956ZM77.4919 78.734C77.497 78.7474 77.5042 78.7561 77.5097 78.7655C77.5129 78.7738 77.5147 78.7789 77.5133 78.785C77.6328 79.0017 77.8991 79.1021 78.1347 79.0119C78.3966 78.9115 78.5252 78.6187 78.4267 78.3619C78.3281 78.105 78.0354 77.976 77.7734 78.0767C77.5165 78.1753 77.3876 78.4677 77.4865 78.7249L77.4901 78.7347L77.4919 78.734Z" fill="#F8F8F8"/>
<path d="M79.3995 78.5684L79.4539 76.7347L78.5843 77.0684C78.5517 77.0825 78.5129 77.0669 78.5002 77.0336C78.4876 77.0002 78.505 76.9607 78.5383 76.9481L79.4894 76.5829C79.5006 76.5727 79.5126 76.5684 79.5278 76.5684C79.5459 76.5709 79.5651 76.5807 79.576 76.5937C79.5825 76.601 79.5861 76.6053 79.5887 76.6118C79.5937 76.6252 79.5941 76.6365 79.5912 76.6492L79.535 78.5716C79.5339 78.5988 79.5162 78.6231 79.493 78.6318C79.4829 78.6358 79.4778 78.6376 79.4658 78.6365C79.4292 78.6354 79.3995 78.6028 79.3977 78.5687L79.3995 78.5684Z" fill="#F8F8F8"/>
<path d="M80.5123 76.1692C80.7177 76.0906 80.9518 76.192 81.0308 76.3971C81.0786 76.5224 81.0587 76.6543 80.9938 76.7598C81.2406 76.7645 81.4714 76.917 81.5645 77.159C81.6888 77.4826 81.5301 77.8424 81.2069 77.9681C80.8848 78.092 80.5235 77.9337 80.3978 77.6108C80.3047 77.3688 80.3728 77.1014 80.5489 76.9326C80.4326 76.8985 80.3308 76.8134 80.283 76.688C80.204 76.4829 80.3029 76.2514 80.5116 76.1714L80.5123 76.1692ZM81.1605 77.8424C81.4174 77.7438 81.5398 77.4594 81.4427 77.2058C81.346 76.954 81.063 76.825 80.8058 76.9239C80.5522 77.021 80.4272 77.3083 80.5239 77.5605C80.6217 77.8156 80.9069 77.9398 81.1605 77.8424ZM80.7551 76.796C80.892 76.7395 80.9619 76.5826 80.909 76.4438C80.8558 76.3054 80.7 76.2387 80.5616 76.292C80.4232 76.3453 80.3558 76.4993 80.409 76.6377C80.4623 76.7761 80.6174 76.8467 80.7565 76.7953L80.7551 76.796Z" fill="#F8F8F8"/>
<path d="M83.7056 74.9342C84.0143 74.8157 84.3516 74.9469 84.4983 75.2291C84.5034 75.2331 84.5049 75.2364 84.5085 75.2407C84.5302 75.2878 84.552 75.3389 84.5723 75.3922C84.6639 75.631 84.7157 75.9154 84.6777 76.1752C84.636 76.436 84.49 76.6835 84.1991 76.8085L84.1958 76.8099C84.1592 76.8241 84.1212 76.8099 84.1081 76.7766C84.0944 76.7397 84.1089 76.7034 84.1444 76.686C84.3886 76.5788 84.5045 76.3871 84.5429 76.1578C84.5628 76.0259 84.5589 75.8857 84.5313 75.7487C84.4701 75.9139 84.3404 76.0498 84.1603 76.119C83.8331 76.2444 83.4665 76.0868 83.3371 75.7552C83.2118 75.4284 83.3752 75.061 83.7023 74.9357L83.7056 74.9342ZM84.4038 75.3422C84.3052 75.0853 84.0154 74.9589 83.7534 75.0596C83.4965 75.1581 83.3672 75.4491 83.465 75.7045C83.5657 75.9665 83.8563 76.09 84.1132 75.9915C84.3752 75.8911 84.5045 75.6041 84.402 75.3425L84.4038 75.3422Z" fill="#F8F8F8"/>
<path d="M85.1077 75.4265C85.015 75.1848 84.9903 74.9413 85.036 74.7305C85.0845 74.5283 85.199 74.358 85.3809 74.2881C85.5628 74.2182 85.7635 74.2674 85.9345 74.3837C86.107 74.5091 86.2584 74.7037 86.353 74.945C86.4458 75.1866 86.4653 75.4319 86.42 75.6388C86.3722 75.8428 86.2581 76.0149 86.0762 76.0848C85.8943 76.1544 85.6936 76.1051 85.5215 75.9855C85.3487 75.8645 85.2001 75.6671 85.107 75.425L85.1077 75.4265ZM85.2327 75.3787C85.3175 75.599 85.4537 75.7743 85.6005 75.8769C85.7461 75.9779 85.8998 76.0091 86.0284 75.9595C86.1566 75.9102 86.2461 75.7841 86.2889 75.6109C86.3273 75.437 86.3128 75.2149 86.2284 74.9946C86.144 74.7743 86.0041 74.6 85.8592 74.4968C85.7099 74.3917 85.5599 74.3649 85.4313 74.4142C85.3026 74.4634 85.2081 74.5859 85.1708 74.7631C85.1324 74.9366 85.1501 75.1577 85.2353 75.3798L85.2327 75.3787Z" fill="#F8F8F8"/>
<path d="M86.9049 73.9072L86.7092 74.1551C86.7092 74.1551 86.6929 74.1725 86.6813 74.1772C86.6578 74.1862 86.6328 74.1804 86.6161 74.1677C86.585 74.1413 86.581 74.1007 86.6071 74.0735L86.8726 73.7283C86.8955 73.7025 86.9408 73.6964 86.9668 73.7192C86.981 73.7308 86.9882 73.7453 86.9929 73.7627L87.6321 75.4123C87.6447 75.446 87.6306 75.4837 87.594 75.4978C87.5607 75.5109 87.5216 75.4931 87.5085 75.4598L86.9085 73.9062L86.9049 73.9072Z" fill="#F8F8F8"/>
<path d="M88.0517 75.1931L88.597 74.1109C88.6615 73.979 88.6673 73.8348 88.618 73.7065C88.5757 73.5964 88.492 73.5022 88.3778 73.4445C88.2492 73.379 88.1025 73.3761 87.9782 73.4257C87.8648 73.4692 87.7699 73.5514 87.7097 73.6645L87.6539 73.7779C87.6383 73.8127 87.5959 73.8268 87.5666 73.8094C87.5318 73.7942 87.5173 73.7518 87.5347 73.7221L87.5901 73.6072C87.6651 73.4634 87.7887 73.3565 87.93 73.3003C88.0869 73.2402 88.2684 73.2395 88.4358 73.3264C88.5844 73.3996 88.6883 73.5206 88.7416 73.659C88.8025 73.8174 88.8003 74.0022 88.7173 74.1699L88.2503 75.0978L89.1014 74.771C89.134 74.7565 89.1735 74.7739 89.1869 74.809C89.1996 74.8424 89.1822 74.8815 89.1488 74.8945L88.1474 75.2826L88.1372 75.2866C88.1188 75.2935 88.0985 75.2956 88.0836 75.2862C88.0492 75.2666 88.0344 75.2282 88.0499 75.1938L88.0517 75.1931Z" fill="#F8F8F8"/>
<path d="M91.5836 72.0171L91.3035 72.6744C91.426 72.6541 91.555 72.6657 91.6749 72.7193C91.839 72.7921 91.9593 72.9258 92.0195 73.0827C92.0796 73.2396 92.0814 73.4189 92.0068 73.5834C91.9336 73.7475 91.8006 73.8693 91.6459 73.9305C91.4926 73.9896 91.3115 73.9921 91.147 73.9175C91.1129 73.9037 91.0959 73.8642 91.1126 73.8273C91.1263 73.7932 91.1655 73.7762 91.2024 73.7925C91.3329 73.8479 91.4727 73.8479 91.5963 73.8004C91.7195 73.753 91.8253 73.6588 91.8843 73.5291C91.943 73.3975 91.9405 73.2566 91.8934 73.133C91.8459 73.0099 91.7517 72.9041 91.6213 72.849C91.4916 72.7896 91.3506 72.7921 91.2271 72.8396C91.2071 72.8472 91.185 72.8443 91.1658 72.8341L91.1626 72.8356C91.1263 72.8207 91.11 72.7791 91.1274 72.7436L91.3959 72.1124L90.7068 72.3769C90.6709 72.3925 90.6318 72.3751 90.618 72.3399C90.6042 72.3033 90.6216 72.2638 90.6564 72.2504L91.4974 71.9276C91.5336 71.912 91.5727 71.9294 91.5861 71.9646C91.5901 71.9747 91.5905 71.9859 91.5887 71.9961C91.5887 72.0059 91.5861 72.0142 91.5832 72.0211L91.5836 72.0171Z" fill="#F8F8F8"/>
<path d="M93.6008 72.7487L92.6265 73.123L92.6236 73.1259L92.6189 73.1277C92.6055 73.1327 92.5899 73.1371 92.5754 73.1291C92.5392 73.1201 92.52 73.0795 92.5338 73.0454L93.0733 71.349L93.0751 71.3443C93.0877 71.307 93.1214 71.2903 93.1588 71.303C93.1718 71.3074 93.1816 71.3172 93.1903 71.3251C93.1921 71.3302 93.1954 71.3327 93.1975 71.3338L93.2008 71.3422L93.6772 72.574L93.7975 72.528C93.8341 72.5139 93.8736 72.5313 93.8863 72.5646C93.899 72.598 93.8816 72.6375 93.8464 72.6509L93.7265 72.6969L93.845 73.0056C93.8577 73.0389 93.8403 73.078 93.8051 73.0914C93.7718 73.1045 93.7327 73.0871 93.7196 73.0534L93.6012 72.7447L93.6008 72.7487ZM93.5533 72.6255L93.1461 71.5737L92.7037 72.9552L93.5548 72.6288L93.5533 72.6255Z" fill="#F8F8F8"/>
<path d="M94.3883 72.6646C94.352 72.6497 94.3361 72.6081 94.3538 72.5744C94.3691 72.5399 94.4111 72.5236 94.4455 72.5392C94.576 72.5943 94.7154 72.5943 94.839 72.5472C94.9625 72.4997 95.0647 72.407 95.1234 72.2751C95.1821 72.1436 95.1803 72.0044 95.1328 71.8809C95.0847 71.7559 94.9908 71.6504 94.8615 71.5928C94.7321 71.5352 94.5912 71.5374 94.468 71.5849C94.3426 71.6331 94.239 71.7265 94.1803 71.8581C94.1647 71.8928 94.1238 71.9102 94.0901 71.8925C94.0799 71.8907 94.0716 71.8845 94.0676 71.8783L94.0662 71.8751C94.0662 71.8751 94.0611 71.8715 94.0596 71.8678C94.0542 71.8642 94.0513 71.8559 94.0488 71.8494C94.0473 71.8457 94.047 71.8403 94.0452 71.8352L93.8517 71.0769C93.8441 71.0566 93.8477 71.0363 93.8589 71.0204C93.8651 71.0066 93.8781 70.9957 93.8948 70.9896L94.7321 70.6679C94.7683 70.6522 94.8075 70.6696 94.8209 70.7047C94.8357 70.7432 94.8176 70.7805 94.7825 70.7939L93.9984 71.095L94.1412 71.6566C94.2125 71.5682 94.306 71.4975 94.4147 71.4562C94.5712 71.3957 94.7459 71.3921 94.9129 71.4678C95.0803 71.5396 95.1959 71.6711 95.2575 71.8312C95.3162 71.9849 95.3227 72.166 95.2462 72.3312C95.1727 72.4936 95.0379 72.616 94.8828 72.6758C94.726 72.736 94.5466 72.7378 94.3828 72.6649L94.3883 72.6646Z" fill="#F8F8F8"/>
<path d="M95.6241 70.7746C95.6639 70.5085 95.8078 70.2655 96.1027 70.1409C96.1349 70.1247 96.1741 70.1422 96.19 70.1743C96.2041 70.211 96.1868 70.2502 96.1541 70.2647C95.9067 70.3731 95.7973 70.5625 95.7556 70.793C95.7342 70.9217 95.7429 71.0637 95.7672 71.2021C95.8284 71.0369 95.956 70.8959 96.1328 70.8282C96.465 70.7006 96.832 70.864 96.9578 71.1909C97.0839 71.5198 96.9219 71.8862 96.5922 72.0148C96.2701 72.1383 95.911 71.9854 95.777 71.6709C95.757 71.6347 95.7426 71.5963 95.7266 71.5546C95.6364 71.3151 95.5842 71.0347 95.6259 70.7738L95.6241 70.7746ZM95.8983 71.613C95.9034 71.6264 95.9107 71.6351 95.9161 71.6445C95.9194 71.6528 95.9212 71.6579 95.9197 71.664C96.0393 71.8804 96.3056 71.9811 96.5407 71.8909C96.8027 71.7901 96.9317 71.4977 96.8331 71.2409C96.7346 70.9836 96.4418 70.855 96.1799 70.9554C95.923 71.0543 95.794 71.3467 95.8925 71.6035L95.8965 71.6137L95.8983 71.613Z" fill="#F8F8F8"/>
<path d="M86.214 79.5742L70.541 85.6376L70.8389 86.4076L86.5118 80.3441L86.214 79.5742Z" fill="url(#paint11_linear_34736_3893)"/>
<path d="M82.2991 83.0566L71.2031 87.3494L71.5009 88.1197L82.5969 83.8269L82.2991 83.0566Z" fill="url(#paint12_linear_34736_3893)"/>
<path d="M86.5305 64.6412L79.4848 67.3669C79.2721 67.4492 79.1664 67.6883 79.2486 67.9009C79.3308 68.1136 79.57 68.2193 79.7827 68.137L86.8283 65.4113C87.041 65.329 87.1464 65.0899 87.0642 64.8773C86.9819 64.6646 86.7428 64.5589 86.5305 64.6412Z" fill="#3B3B3B"/>
<path d="M99.4428 84.3145L62.7207 91.4529L65.5784 106.154L102.301 99.0163L99.4428 84.3145Z" fill="url(#paint13_linear_34736_3893)"/>
<path opacity="0.2" d="M99.4428 84.3145L62.7207 91.4529L65.5784 106.154L102.301 99.0163L99.4428 84.3145Z" fill="black"/>
<path d="M102.834 107.814L66.6544 109.645C64.8529 109.737 63.2588 108.489 62.9146 106.718L57.7065 79.9246C57.5836 79.2923 58.2333 78.7898 58.8144 79.0677C59.4888 79.3898 60.2381 79.5264 60.985 79.4634L93.4864 76.6833C95.3317 76.5253 96.9987 77.784 97.352 79.6018L102.836 107.812C102.836 107.813 102.835 107.814 102.834 107.814Z" fill="url(#paint14_linear_34736_3893)"/>
<path d="M95.1493 94.62C95.9913 94.4565 96.5228 93.546 96.3362 92.587C96.15 91.6279 95.3163 90.983 94.4743 91.1464C93.6322 91.3102 93.1007 92.2203 93.2873 93.1797C93.4739 94.1388 94.3076 94.7837 95.1493 94.62Z" fill="#EBEBEB"/>
<path d="M95.5206 92.7455C95.6072 93.1911 95.3601 93.6143 94.9688 93.69C94.5775 93.7661 94.1898 93.4665 94.1032 93.0208C94.0166 92.5755 94.2637 92.1523 94.655 92.0763C95.0463 92.0002 95.434 92.2998 95.5206 92.7455Z" fill="#DBDBDB"/>
<defs>
<filter id="filter0_f_34736_3893" x="0.564453" y="0.0644531" width="168.869" height="168.869" filterUnits="userSpaceOnUse" color-interpolation-filters="sRGB">
<feFlood flood-opacity="0" result="BackgroundImageFix"/>
<feBlend mode="normal" in="SourceGraphic" in2="BackgroundImageFix" result="shape"/>
<feGaussianBlur stdDeviation="27" result="effect1_foregroundBlur_34736_3893"/>
</filter>
<linearGradient id="paint0_linear_34736_3893" x1="54.9584" y1="42.834" x2="118.56" y2="56.0735" gradientUnits="userSpaceOnUse">
<stop stop-color="#A259FF"/>
<stop offset="1" stop-color="#3B3B3B"/>
</linearGradient>
<linearGradient id="paint1_linear_34736_3893" x1="64.4195" y1="54.0645" x2="123.281" y2="65.4163" gradientUnits="userSpaceOnUse">
<stop stop-color="#A259FF" stop-opacity="0"/>
<stop offset="1" stop-color="#FF6250"/>
</linearGradient>
<linearGradient id="paint2_linear_34736_3893" x1="116.771" y1="113.896" x2="122.108" y2="118.087" gradientUnits="userSpaceOnUse">
<stop stop-color="#A259FF"/>
<stop offset="1" stop-color="#377DF7"/>
</linearGradient>
<linearGradient id="paint3_linear_34736_3893" x1="56.1573" y1="119.835" x2="55.979" y2="125.145" gradientUnits="userSpaceOnUse">
<stop stop-color="#A259FF"/>
<stop offset="1" stop-color="#377DF7"/>
</linearGradient>
<linearGradient id="paint4_linear_34736_3893" x1="118.741" y1="58.8689" x2="124.046" y2="58.5647" gradientUnits="userSpaceOnUse">
<stop stop-color="#A259FF"/>
<stop offset="1" stop-color="#377DF7"/>
</linearGradient>
<linearGradient id="paint5_linear_34736_3893" x1="98.6058" y1="83.075" x2="111.686" y2="85.3366" gradientUnits="userSpaceOnUse">
<stop stop-color="#A259FF"/>
<stop offset="1" stop-color="#3B3B3B"/>
</linearGradient>
<linearGradient id="paint6_linear_34736_3893" x1="89.9992" y1="115.983" x2="75.8692" y2="88.235" gradientUnits="userSpaceOnUse">
<stop stop-color="#A259FF"/>
<stop offset="1" stop-color="#3B3B3B"/>
</linearGradient>
<linearGradient id="paint7_linear_34736_3893" x1="66.889" y1="68.5224" x2="100.918" y2="65.5831" gradientUnits="userSpaceOnUse">
<stop stop-color="#A259FF"/>
<stop offset="1" stop-color="#FF6250"/>
</linearGradient>
<linearGradient id="paint8_linear_34736_3893" x1="93.0699" y1="76.7155" x2="96.6417" y2="76.0803" gradientUnits="userSpaceOnUse">
<stop stop-color="#A259FF"/>
<stop offset="1" stop-color="#FF6250"/>
</linearGradient>
<linearGradient id="paint9_linear_34736_3893" x1="95.1834" y1="75.8969" x2="98.7548" y2="75.2618" gradientUnits="userSpaceOnUse">
<stop stop-color="#A259FF"/>
<stop offset="1" stop-color="#3B3B3B"/>
</linearGradient>
<linearGradient id="paint10_linear_34736_3893" x1="66.5623" y1="72.3689" x2="72.9499" y2="71.7471" gradientUnits="userSpaceOnUse">
<stop stop-color="#A259FF"/>
<stop offset="1" stop-color="#3B3B3B"/>
</linearGradient>
<linearGradient id="paint11_linear_34736_3893" x1="73.0784" y1="84.6557" x2="75.4915" y2="88.046" gradientUnits="userSpaceOnUse">
<stop stop-color="#A259FF"/>
<stop offset="1" stop-color="#FF6250"/>
</linearGradient>
<linearGradient id="paint12_linear_34736_3893" x1="72.9995" y1="86.6545" x2="75.6473" y2="89.7066" gradientUnits="userSpaceOnUse">
<stop stop-color="#A259FF"/>
<stop offset="1" stop-color="#FF6250"/>
</linearGradient>
<linearGradient id="paint13_linear_34736_3893" x1="68.6662" y1="90.2971" x2="101.359" y2="98.8869" gradientUnits="userSpaceOnUse">
<stop stop-color="#A259FF"/>
<stop offset="1" stop-color="#3B3B3B"/>
</linearGradient>
<linearGradient id="paint14_linear_34736_3893" x1="93.0777" y1="98.8902" x2="36.4423" y2="71.709" gradientUnits="userSpaceOnUse">
<stop stop-color="#A259FF"/>
<stop offset="0.666667" stop-color="white"/>
</linearGradient>
</defs>
</svg>
